<svg width="11" height="16" viewBox="0 0 11 16" fill="none" xmlns="http://www.w3.org/2000/svg">
<g clip-path="url(#clip0)">
<path d="M2.66762 15.9999C4.13961 15.9999 5.33426 14.8053 5.33426 13.3333V10.6667H2.66762C1.19563 10.6667 0.000976562 11.8613 0.000976562 13.3333C0.000976562 14.8053 1.19563 15.9999 2.66762 15.9999Z" fill="#C5C6C8"/>
<path d="M0.000976562 7.99999C0.000976562 6.528 1.19563 5.33334 2.66762 5.33334H5.33426V10.6666H2.66762C1.19563 10.6666 0.000976562 9.47197 0.000976562 7.99999Z" fill="#C5C6C8"/>
<path d="M0.00134277 2.66673C0.00134277 1.19473 1.196 6.10352e-05 2.66799 6.10352e-05H5.33463V5.33339H2.66799C1.196 5.33339 0.00134277 4.13873 0.00134277 2.66673Z" fill="#C5C6C8"/>
<path d="M5.33435 3.05176e-05H8.00104C9.47306 3.05176e-05 10.6677 1.1947 10.6677 2.6667C10.6677 4.1387 9.47306 5.33336 8.00104 5.33336H5.33435V3.05176e-05Z" fill="#C5C6C8"/>
<path d="M10.6677 7.99999C10.6677 9.47197 9.47306 10.6666 8.00104 10.6666C6.52903 10.6666 5.33435 9.47197 5.33435 7.99999C5.33435 6.528 6.52903 5.33334 8.00104 5.33334C9.47306 5.33334 10.6677 6.528 10.6677 7.99999Z" fill="#C5C6C8"/>
</g>
<defs>
<clipPath id="clip0">
<rect width="10.6688" height="16" fill="white"/>
</clipPath>
</defs>
</svg>
