<svg width="17" height="16" viewBox="0 0 17 16" fill="none" xmlns="http://www.w3.org/2000/svg">
<path d="M16.2095 7.28735L9.22373 0.301978C8.82167 -0.100334 8.16917 -0.100334 7.76661 0.301978L6.31598 1.7526L8.15617 3.59279C8.58379 3.44829 9.07417 3.54523 9.41504 3.8861C9.75754 4.22917 9.85379 4.72373 9.70579 5.15273L11.4792 6.92623C11.9083 6.77842 12.4034 6.87404 12.746 7.21729C13.225 7.69604 13.225 8.47198 12.746 8.95104C12.267 9.43017 11.491 9.43017 11.0117 8.95104C10.6515 8.59042 10.5625 8.06135 10.7449 7.61754L9.09098 5.96367L9.09079 10.316C9.21068 10.3753 9.32019 10.4536 9.41504 10.5479C9.89398 11.0266 9.89398 11.8026 9.41504 12.282C8.93598 12.7609 8.15967 12.7609 7.68129 12.282C7.20236 11.8026 7.20236 11.0267 7.68129 10.5479C7.79607 10.4331 7.93247 10.3421 8.08261 10.2804V5.88748C7.93225 5.8261 7.79577 5.73511 7.68129 5.61992C7.31842 5.25754 7.23117 4.7251 7.41711 4.27954L5.60311 2.46535L0.813105 7.25504C0.410605 7.65773 0.410605 8.31029 0.813105 8.71267L7.79898 15.6982C8.20117 16.1005 8.85354 16.1005 9.25623 15.6982L16.2094 8.7451C16.6118 8.3426 16.6118 7.68967 16.2094 7.28735" fill="#DE4C36"/>
</svg>
