<svg width="17" height="16" viewBox="0 0 17 16" fill="none" xmlns="http://www.w3.org/2000/svg">
<g clip-path="url(#clip0)">
<path d="M8.46116 0.0435028L8.88816 0.845503C8.98416 0.993503 9.08816 1.1245 9.21066 1.2465C9.56816 1.604 9.90766 1.9785 10.2127 2.3795C10.9362 3.3295 11.4242 4.3845 11.7727 5.5255C11.9817 6.2225 12.0952 6.9375 12.1037 7.6605C12.1387 9.822 11.3977 11.678 9.90366 13.2205C9.65966 13.4645 9.39866 13.6905 9.11866 13.8915C8.97066 13.8915 8.90066 13.778 8.83966 13.6735C8.72616 13.482 8.65666 13.2635 8.62166 13.046C8.56916 12.7845 8.53466 12.523 8.55166 12.253V12.131C8.53966 12.105 8.40916 0.105003 8.46116 0.0435028Z" fill="#599636"/>
<path d="M8.46126 0.0170031C8.44376 -0.0179969 8.42626 0.00850314 8.40876 0.0255031C8.41726 0.200503 8.35626 0.356503 8.26076 0.505503C8.15576 0.653503 8.01676 0.767003 7.87726 0.889003C7.10226 1.56 6.49226 2.3705 6.00376 3.277C5.35376 4.497 5.01876 5.8045 4.92376 7.181C4.88026 7.6775 5.08076 9.4295 5.23726 9.935C5.66426 11.277 6.43126 12.4015 7.42476 13.3775C7.66876 13.6125 7.92976 13.8305 8.19976 14.04C8.27826 14.04 8.28676 13.97 8.30476 13.918C8.33918 13.8067 8.36542 13.6931 8.38326 13.578L8.55826 12.271L8.46126 0.0170031Z" fill="#6CAC48"/>
<path d="M8.88821 14.4225C8.90571 14.2225 9.00171 14.0565 9.10621 13.891C9.00121 13.8475 8.92321 13.761 8.86221 13.6645C8.80971 13.5775 8.76621 13.473 8.73221 13.377C8.61021 13.011 8.58421 12.627 8.54921 12.253V12.0265C8.50571 12.0615 8.49671 12.3575 8.49671 12.4015C8.47126 12.7968 8.41881 13.1899 8.33971 13.578C8.31371 13.735 8.29621 13.8915 8.19971 14.031C8.19971 14.0485 8.19971 14.066 8.20821 14.092C8.36521 14.554 8.40821 15.0245 8.43471 15.504V15.679C8.43471 15.888 8.42621 15.844 8.59971 15.914C8.66971 15.94 8.74771 15.949 8.81771 16.001C8.87021 16.001 8.87871 15.9575 8.87871 15.9225L8.85271 15.635V14.833C8.84421 14.693 8.87021 14.554 8.88771 14.423L8.88821 14.4225Z" fill="#C2BFBF"/>
</g>
<defs>
<clipPath id="clip0">
<rect width="16" height="16" fill="white" transform="translate(0.51123)"/>
</clipPath>
</defs>
</svg>
