<svg width="17" height="16" viewBox="0 0 17 16" fill="none" xmlns="http://www.w3.org/2000/svg">
<path d="M15.2456 12.3826C14.3729 12.3586 13.706 12.4412 13.1362 12.6861C12.9741 12.7558 12.7159 12.7576 12.6894 12.9646C12.7784 13.0596 12.7925 13.2016 12.863 13.3185C12.9992 13.5431 13.2292 13.844 13.4339 14.0015C13.6579 14.1737 13.8885 14.3582 14.129 14.5077C14.5562 14.7733 15.0331 14.9249 15.4443 15.1907C15.6867 15.3473 15.9275 15.5446 16.164 15.7218C16.2808 15.8093 16.3597 15.9453 16.5112 16V15.9747C16.4313 15.8711 16.4109 15.7287 16.3376 15.6208L16.015 15.2919C15.6993 14.8629 15.2991 14.4903 14.8734 14.1786C14.5339 13.9303 13.774 13.5948 13.6324 13.1919L13.6076 13.1666C13.8483 13.1387 14.1301 13.0501 14.3525 12.9897C14.7256 12.8878 15.0592 12.9139 15.4447 12.8127L15.966 12.6608V12.5596C15.7711 12.3558 15.6322 12.0862 15.4199 11.9019C14.8643 11.4193 14.2576 10.9377 13.6332 10.5355C13.2868 10.3124 12.8588 10.1679 12.4916 9.97889C12.3681 9.91539 12.1511 9.88236 12.0696 9.7764C11.8769 9.52586 11.7719 9.20796 11.6231 8.91838C11.3116 8.30705 11.0057 7.63908 10.7296 6.99579C10.5412 6.55713 10.4181 6.12448 10.1837 5.73086C9.05676 3.84237 7.84356 2.7025 5.96474 1.58237C5.5649 1.34427 5.08362 1.24988 4.57477 1.12697L3.75573 1.07635C3.58906 1.00557 3.41566 0.797497 3.25909 0.69668C2.6366 0.295559 1.03998 -0.575969 0.578907 0.567978C0.287866 1.2915 1.01389 1.99743 1.27379 2.36423C1.45603 2.62163 1.68962 2.90971 1.81967 3.19908C1.90532 3.38913 1.92026 3.57982 1.9935 3.78103C2.17384 4.27438 2.33083 4.81558 2.56421 5.27354C2.68206 5.5052 2.81211 5.74931 2.96132 5.95652C3.05286 6.08372 3.20964 6.13971 3.23426 6.33619C3.08106 6.55498 3.07222 6.8939 2.98594 7.17104C2.59809 8.41773 2.74435 9.96709 3.30854 10.8899C3.48174 11.173 3.88936 11.7805 4.45019 11.5476C4.94052 11.3438 4.82899 10.7131 4.97145 10.1563C5.00302 10.0297 4.98366 9.93749 5.04595 9.85276V9.87807L5.49272 10.7886C5.82311 11.3313 6.41024 11.8987 6.90731 12.2816C7.1651 12.48 7.37028 12.8232 7.70151 12.9393V12.9139H7.67668C7.61207 12.811 7.51106 12.7687 7.42836 12.6866C7.23412 12.4924 7.018 12.2511 6.85743 12.0289C6.40498 11.403 6.00556 10.7183 5.6415 10.0051C5.46767 9.66464 5.31637 9.28905 5.17011 8.94262C5.11371 8.80899 5.11435 8.60714 4.9965 8.53785C4.83593 8.79183 4.59939 8.99689 4.47523 9.29677C4.27658 9.77597 4.2509 10.3603 4.17746 10.9665C4.1339 10.9823 4.15326 10.9714 4.12779 10.9918C3.78225 10.9068 3.66061 10.5441 3.53224 10.2329C3.20732 9.44563 3.14714 8.17878 3.43291 7.27314C3.50657 7.0389 3.84117 6.30058 3.70586 6.08415C3.64125 5.86814 3.42808 5.74094 3.30876 5.57792C3.16145 5.37414 3.01372 5.10516 2.91165 4.86963C2.64566 4.25615 2.52149 3.56759 2.24161 2.94704C2.10777 2.65059 1.88175 2.35072 1.69572 2.08902C1.48991 1.7973 1.25948 1.58194 1.10017 1.23101C1.04335 1.10552 0.966329 0.904963 1.05051 0.775618C1.05854 0.738455 1.07684 0.70441 1.10324 0.677501C1.12964 0.650592 1.16304 0.631941 1.1995 0.623749C1.34344 0.510706 1.74454 0.661287 1.89438 0.724995C2.29211 0.893595 2.62461 1.05404 2.96174 1.28163C3.12378 1.38888 3.28729 1.60253 3.48279 1.6613H3.70586C4.05519 1.74324 4.44661 1.68704 4.7728 1.78786C5.34983 1.96654 5.86667 2.24475 6.33638 2.54677C7.76696 3.46742 8.93639 4.77804 9.73648 6.34348C9.86528 6.5951 9.92083 6.83555 10.0343 7.1024C10.263 7.63866 10.5511 8.19486 10.7788 8.72125C11.0061 9.24679 11.227 9.77661 11.5482 10.2138C11.7169 10.4433 12.3689 10.5668 12.665 10.6943C12.8727 10.7837 13.2128 10.877 13.4095 10.9978C13.7852 11.2288 14.1492 11.504 14.5017 11.7571C14.6779 11.8837 15.2193 12.161 15.2463 12.3895L15.2456 12.3826Z" fill="#00618A"/>
<path fill-rule="evenodd" clip-rule="evenodd" d="M4.15233 2.74454C3.9703 2.74111 3.84172 2.7647 3.70557 2.79516V2.82047H3.7304C3.8171 3.00237 3.9703 3.11928 4.07763 3.27586L4.32595 3.80697L4.35078 3.78166C4.5044 3.67119 4.5749 3.49466 4.57385 3.22503C4.51219 3.15896 4.50314 3.07616 4.44969 2.99722C4.37877 2.89212 4.23925 2.83249 4.15191 2.74411L4.15233 2.74454Z" fill="#00618A"/>
</svg>
