<svg width="27" height="16" viewBox="0 0 27 16" fill="none" xmlns="http://www.w3.org/2000/svg">
<path d="M6.25556 4.17146H11.2558V4.56889H6.71392V7.56007H10.985V7.95749H6.71392V11.2415H11.3079V11.6389H6.25556V4.17146ZM11.7038 4.17146H12.2351L14.5894 7.45548L16.9957 4.17146L20.2688 0L14.8915 7.80061L17.6624 11.6389H17.1103L14.5894 8.14575L12.058 11.6389H11.5163L14.3081 7.80061L11.7038 4.17146ZM17.8604 4.56889V4.17146H23.5586V4.56889H20.9335V11.6389H20.4751V4.56889H17.8604ZM0 4.17146H0.572949L8.47358 15.994L5.20862 11.6389L0.479193 4.73623L0.458359 11.6389H0V4.17146ZM23.5124 11.1216C23.4188 11.1216 23.3485 11.049 23.3485 10.9553C23.3485 10.8615 23.4188 10.7889 23.5124 10.7889C23.6072 10.7889 23.6763 10.8615 23.6763 10.9553C23.6763 11.049 23.6072 11.1216 23.5124 11.1216ZM23.9628 10.684H24.2081C24.2114 10.8168 24.3084 10.9061 24.4511 10.9061C24.6105 10.9061 24.7008 10.8101 24.7008 10.6304V9.4918H24.9506V10.6315C24.9506 10.9553 24.7633 11.1417 24.4533 11.1417C24.1624 11.1417 23.9628 10.9608 23.9628 10.684ZM25.2772 10.6695H25.5247C25.5459 10.8224 25.6953 10.9195 25.9104 10.9195C26.1111 10.9195 26.2583 10.8157 26.2583 10.6728C26.2583 10.55 26.1646 10.4764 25.9517 10.4261L25.7443 10.3759C25.4534 10.3078 25.3207 10.1672 25.3207 9.9305C25.3207 9.64361 25.5548 9.45273 25.906 9.45273C26.2326 9.45273 26.4712 9.64361 26.4857 9.91487H26.2427C26.2192 9.76641 26.0899 9.67375 25.9026 9.67375C25.7053 9.67375 25.5738 9.76864 25.5738 9.91376C25.5738 10.0287 25.6585 10.0946 25.8681 10.1437L26.0453 10.1872C26.3753 10.2643 26.5113 10.3982 26.5113 10.6405C26.5113 10.9486 26.2728 11.1417 25.8915 11.1417C25.5347 11.1417 25.295 10.9575 25.2772 10.6695Z" fill="white"/>
</svg>
