<svg width="16" height="16" viewBox="0 0 16 16" fill="none" xmlns="http://www.w3.org/2000/svg">
<path d="M8.33798 9.67591C9.07692 9.67591 9.67595 9.07687 9.67595 8.33793C9.67595 7.59899 9.07692 6.99995 8.33798 6.99995C7.59903 6.99995 7 7.59899 7 8.33793C7 9.07687 7.59903 9.67591 8.33798 9.67591Z" fill="#00D8FF"/>
<path d="M8.17097 5.60001C9.96703 5.60001 11.6358 5.85779 12.8937 6.29066C14.4094 6.81241 15.3415 7.60343 15.3415 8.31973C15.3415 9.0661 14.3537 9.90664 12.7261 10.4456C11.4956 10.8533 9.87595 11.0664 8.17097 11.0664C6.42267 11.0664 4.76766 10.8666 3.52297 10.4412C1.94844 9.90311 1 9.05195 1 8.31973C1 7.60918 1.89007 6.82435 3.38458 6.30348C4.64739 5.86353 6.35723 5.60001 8.17097 5.60001V5.60001Z" stroke="#00D8FF" stroke-width="0.5" stroke-miterlimit="10"/>
<path d="M5.90837 6.97903C6.80551 5.42307 7.8627 4.10631 8.8664 3.23305C10.0757 2.18071 11.2266 1.76862 11.847 2.12632C12.4934 2.49906 12.7282 3.7747 12.382 5.45446C12.1202 6.72434 11.4959 8.23344 10.6439 9.71069C9.77061 11.2251 8.77045 12.5591 7.78046 13.4248C6.52783 14.5201 5.31632 14.9162 4.68227 14.5506C4.06679 14.1955 3.83156 13.0326 4.12648 11.4776C4.37586 10.1626 5.00195 8.55002 5.90837 6.97903V6.97903Z" stroke="#00D8FF" stroke-width="0.5" stroke-miterlimit="10"/>
<path d="M5.90669 9.69985C5.00689 8.1452 4.39405 6.57198 4.13848 5.26627C3.83074 3.69305 4.04828 2.48992 4.66819 2.13133C5.31419 1.75726 6.53633 2.19102 7.81861 3.32959C8.78827 4.19048 9.78358 5.48514 10.6378 6.96109C11.5138 8.47417 12.1704 10.0067 12.4255 11.2965C12.7487 12.929 12.487 14.1763 11.8533 14.5429C11.2383 14.8988 10.1134 14.5221 8.9134 13.4896C7.89996 12.6173 6.81534 11.2695 5.90669 9.69985V9.69985Z" stroke="#00D8FF" stroke-width="0.5" stroke-miterlimit="10"/>
</svg>
