<svg width="17" height="17" viewBox="0 0 17 17" fill="none" xmlns="http://www.w3.org/2000/svg">
<path d="M8.12505 16.9716C8.07881 16.9721 8.03239 16.9712 7.98597 16.9704C7.9722 16.971 7.95769 16.9706 7.94466 16.9713C7.91712 16.9713 7.88977 16.9699 7.86261 16.9673C5.20502 16.8811 2.87145 15.4928 1.47999 13.4218C1.46436 13.4046 1.45125 13.3851 1.44129 13.3638C0.607556 12.0992 0.122683 10.5851 0.125008 8.96026C0.128078 6.8234 0.963117 4.81567 2.47625 3.30694C3.92994 1.85746 5.84264 1.03519 7.8854 0.975462C7.91266 0.973043 7.94382 0.974718 7.96764 0.971741C7.98169 0.971741 7.99573 0.972113 8.00969 0.972857C8.05202 0.972206 8.09407 0.972113 8.1364 0.97202C10.2733 0.974997 12.2811 1.81002 13.7899 3.32312C15.2988 4.83623 16.1281 6.84638 16.125 8.98324C16.1227 10.6064 15.6342 12.1178 14.7983 13.3794C14.7876 13.4033 14.7729 13.425 14.7551 13.4438C13.3158 15.5711 10.8803 16.9714 8.12505 16.9716ZM7.85368 16.4955C7.89861 16.4993 7.94373 16.502 7.98904 16.5038C8.43121 16.4562 8.90473 15.6786 9.26439 14.4029C9.34356 14.1222 9.41575 13.8235 9.48096 13.5093L6.4185 13.505C6.48269 13.8194 6.55414 14.1183 6.63247 14.3992C6.97557 15.6295 7.42583 16.3978 7.85368 16.4955ZM9.95542 13.51C9.88313 13.8696 9.80192 14.2104 9.71214 14.529C9.47417 15.3731 9.19154 16.007 8.87385 16.417C10.1556 16.1109 11.2754 15.0377 12.0278 13.513L9.95542 13.51ZM4.20931 13.5017C4.87104 14.8526 5.82153 15.8509 6.91882 16.2777C6.64233 15.8679 6.39515 15.28 6.18434 14.524C6.0955 14.2052 6.01521 13.864 5.94405 13.5042L4.20931 13.5017ZM12.5345 13.5137C12.0263 14.6071 11.3404 15.5036 10.5398 16.1096C11.9817 15.6204 13.2291 14.7059 14.1316 13.5159L12.5345 13.5137ZM2.10544 13.4987C3.00457 14.6912 4.24913 15.6094 5.68952 16.1026C4.89076 15.4943 4.20755 14.5959 3.70239 13.501L2.10544 13.4987ZM12.7352 13.0489L14.4574 13.0513C15.1767 11.9387 15.6109 10.6253 15.6559 9.21507L13.486 9.212C13.4571 10.6099 13.1867 11.9188 12.7352 13.0489ZM10.042 13.0449L12.2398 13.0481C12.708 11.9351 12.9909 10.6216 13.0209 9.21134L10.3653 9.20753C10.3521 10.5803 10.2403 11.894 10.042 13.0449ZM6.33059 13.0397L9.57008 13.0444C9.77252 11.9015 9.88676 10.5859 9.90006 9.20688L6.01159 9.2013C6.02098 10.5803 6.1315 11.8962 6.33059 13.0397ZM3.99869 13.0364L5.85874 13.039C5.66375 11.8873 5.55574 10.5735 5.54653 9.20065L3.2285 9.1973C3.25445 10.6076 3.53363 11.922 3.99869 13.0364ZM1.78104 13.0331L3.50321 13.0355C3.0549 11.9042 2.78828 10.5947 2.76334 9.19655L0.593415 9.19357C0.634349 10.6039 1.0648 11.9185 1.78104 13.0331ZM13.4867 8.74685L15.6567 8.74992C15.6184 7.41655 15.2353 6.14197 14.5494 5.02917L12.7996 5.02675C13.2262 6.15239 13.4635 7.42297 13.4867 8.74685ZM10.366 8.74239L13.0215 8.7462C12.9972 7.41255 12.7476 6.13881 12.3003 5.026L10.0734 5.02284C10.256 6.1456 10.357 7.41664 10.366 8.74239ZM6.01233 8.73616L9.90081 8.74174C9.89178 7.41022 9.78843 6.1376 9.60209 5.02219L6.32175 5.01745C6.13215 6.1323 6.02517 7.40464 6.01233 8.73616ZM3.22924 8.73215L5.54718 8.7355C5.55983 7.40976 5.66458 6.13899 5.85037 5.0167L3.96102 5.014C3.51047 6.1255 3.25724 7.3986 3.22924 8.73215ZM0.593974 8.72843L2.7639 8.7315C2.79088 7.40771 3.03192 6.13778 3.46172 5.01326L1.71192 5.01084C1.02294 6.1216 0.636116 7.39506 0.593974 8.72843ZM12.6087 4.56133L14.2379 4.56356C14.0053 4.24261 13.7458 3.93757 13.4606 3.65151C12.6353 2.82393 11.6516 2.21162 10.5775 1.84323C11.082 2.22846 11.5468 2.73649 11.9554 3.35671C12.2011 3.72993 12.4194 4.1334 12.6087 4.56133ZM9.99142 4.55751L12.0972 4.56058C11.9392 4.22624 11.7621 3.9092 11.5668 3.61263C10.8277 2.49024 9.89867 1.77113 8.89515 1.52861C9.21164 1.9397 9.4925 2.57434 9.72805 3.41903C9.82666 3.77273 9.91467 4.15377 9.99142 4.55751ZM6.40743 4.5524L9.51771 4.55686C9.44747 4.1987 9.36812 3.85999 9.28002 3.54388C8.92408 2.26772 8.45289 1.48888 8.01099 1.43939C7.96559 1.44107 7.92019 1.44367 7.87498 1.4473C7.44686 1.54414 6.99464 2.31097 6.6481 3.54016C6.55907 3.85589 6.47869 4.19452 6.40743 4.5524ZM4.1655 4.54914L5.93363 4.55165C6.01159 4.1481 6.10062 3.76733 6.20025 3.41401C6.41329 2.65834 6.66215 2.07115 6.93994 1.6622C6.10322 1.98463 5.33219 2.64662 4.69856 3.60276C4.50245 3.89878 4.32439 4.21536 4.1655 4.54914ZM2.02487 4.54616L3.65402 4.5484C3.84454 4.12103 4.064 3.71831 4.3109 3.34582C4.72126 2.72663 5.18743 2.21999 5.69305 1.83616C4.61799 2.20157 3.63243 2.811 2.80484 3.63626C2.51868 3.92157 2.25828 4.22578 2.02487 4.54616Z" fill="#C5C6C8"/>
</svg>
